<?xml version="1.0" standalone="no"?>
<!DOCTYPE svg PUBLIC "-//W3C//DTD SVG 20010904//EN"
 "http://www.w3.org/TR/2001/REC-SVG-20010904/DTD/svg10.dtd">
<svg version="1.0" xmlns="http://www.w3.org/2000/svg"
 width="2454.000000pt" height="2454.000000pt" viewBox="0 0 2454.000000 2454.000000"
 preserveAspectRatio="xMidYMid meet">
<metadata>
Created by potrace 1.14, written by Peter Selinger 2001-2017
</metadata>
<g transform="translate(0.000000,2454.000000) scale(0.100000,-0.100000)"
fill="#000000" stroke="none">
<path d="M0 12270 l0 -12270 12270 0 12270 0 0 12270 0 12270 -12270 0 -12270
0 0 -12270z m11103 4315 c248 -31 397 -65 574 -131 652 -241 1108 -762 1249
-1427 22 -102 27 -158 31 -344 6 -235 -2 -341 -38 -511 -102 -477 -398 -903
-819 -1182 -349 -230 -773 -351 -1240 -353 -392 -2 -715 68 -1036 223 -746
361 -1163 1113 -1084 1955 80 852 682 1519 1550 1720 262 60 579 80 813 50z
m-7658 -87 c4 -13 35 -113 70 -223 35 -110 100 -315 144 -455 281 -893 440
-1397 489 -1550 l56 -175 387 1170 c213 644 393 1188 401 1210 l13 40 497 3
496 2 21 -62 c21 -67 503 -1608 651 -2086 49 -156 90 -285 92 -287 4 -4 93
262 328 985 83 256 219 672 301 925 83 253 155 475 160 493 l11 32 514 0 c283
0 514 -2 514 -4 0 -5 -114 -357 -430 -1331 -95 -291 -203 -624 -240 -740 -37
-115 -95 -293 -128 -395 -119 -366 -404 -1246 -418 -1292 l-15 -48 -578 0
-578 0 -25 83 c-14 45 -65 206 -113 357 -47 151 -134 426 -192 610 -58 184
-143 454 -188 600 -158 504 -206 654 -208 657 -3 2 -105 -306 -431 -1297 -107
-327 -225 -687 -263 -800 l-68 -205 -577 -3 -576 -2 -35 107 c-20 60 -65 198
-100 308 -36 110 -92 283 -125 385 -33 102 -111 340 -172 530 -61 190 -140
433 -175 540 -77 237 -274 843 -425 1310 -61 190 -131 406 -156 480 -24 74
-44 138 -44 143 0 4 249 7 554 7 l555 0 6 -22z m12060 12 c781 -69 1290 -459
1427 -1093 30 -137 32 -455 5 -587 -83 -395 -285 -674 -634 -875 -50 -29 -80
-52 -76 -59 9 -15 740 -1082 775 -1130 15 -21 28 -43 28 -48 0 -4 -258 -8
-573 -8 l-574 0 -344 505 -344 504 -292 1 -293 0 -2 -502 -3 -503 -537 -3
-538 -2 0 1905 0 1905 933 0 c524 0 980 -4 1042 -10z m3599 -1081 c363 -598
665 -1088 670 -1089 5 -1 110 168 234 377 124 208 313 526 421 708 108 181
298 501 422 710 l225 380 447 3 447 2 0 -1042 c0 -574 3 -1431 7 -1905 l6
-863 -495 0 -495 0 -6 263 c-4 144 -7 594 -7 1000 0 405 -3 737 -7 737 -5 0
-133 -211 -286 -468 -152 -257 -369 -620 -480 -807 l-203 -340 -244 -2 -245
-2 -126 207 c-69 114 -285 467 -480 785 l-354 577 -5 -972 -5 -973 -495 0
-495 0 -3 1903 -2 1902 446 -2 446 -3 662 -1086z m-5671 -3555 c826 -90 1477
-584 1727 -1310 154 -447 138 -992 -41 -1419 -269 -642 -855 -1077 -1604
-1191 -169 -26 -561 -26 -730 0 -539 82 -993 327 -1313 711 -373 446 -519
1058 -397 1661 153 757 742 1333 1543 1509 244 54 551 68 815 39z m-2968
-1964 l0 -1905 -535 0 -535 0 -3 743 -2 742 -733 -2 -732 -3 -3 -742 -2 -743
-535 0 -535 0 0 1905 0 1905 535 0 535 0 2 -712 3 -713 733 -3 732 -2 0 715 0
715 248 3 c136 1 378 2 537 2 l290 0 0 -1905z m6445 425 l0 -1475 905 0 905 0
0 -430 0 -430 -1442 2 -1443 3 -3 1903 -2 1902 540 0 540 0 0 -1475z m5220
1060 l0 -415 -957 -2 -958 -3 0 -315 0 -315 848 -3 847 -2 -2 -403 -3 -402
-848 -3 -847 -2 2 -343 3 -342 998 -3 997 -2 -2 -418 -3 -417 -1527 -3 -1528
-2 0 1905 0 1905 1490 0 1490 0 0 -415z"/>
<path d="M10664 15686 c-292 -56 -513 -202 -668 -443 -193 -300 -228 -735 -87
-1087 117 -293 366 -511 676 -593 87 -23 120 -26 260 -27 133 0 175 4 248 22
361 90 628 348 732 707 74 257 57 586 -43 824 -67 159 -203 330 -338 427 -84
60 -231 127 -334 154 -109 28 -341 36 -446 16z"/>
<path d="M14610 15116 l0 -556 363 0 c320 0 373 3 457 20 285 59 440 245 440
530 0 274 -142 459 -409 532 -70 20 -107 22 -463 26 l-388 4 0 -556z"/>
<path d="M13030 10989 c-179 -21 -364 -94 -500 -197 -270 -204 -415 -537 -404
-924 9 -303 106 -547 298 -746 207 -215 511 -322 829 -292 244 23 434 110 603
275 163 159 258 341 298 570 68 381 -28 754 -260 1004 -81 88 -171 154 -289
212 -113 56 -209 83 -349 98 -106 12 -119 12 -226 0z"/>
</g>
</svg>
